<svg width="437" height="407" viewBox="0 0 437 407" fill="none" xmlns="http://www.w3.org/2000/svg">
<path d="M356.959 294.679H358.835H405.797C420.88 294.679 428.184 288.354 431.809 282.226C433.65 279.113 434.576 275.987 435.041 273.632C435.272 272.457 435.387 271.482 435.444 270.807C435.473 270.471 435.487 270.21 435.494 270.037C435.497 269.951 435.499 269.887 435.499 269.847L435.5 269.805L435.5 269.799C435.5 269.799 435.5 269.8 437 269.8L356.959 294.679ZM356.959 294.679L357.371 296.508M356.959 294.679L357.371 296.508M357.371 296.508L380.192 397.823M357.371 296.508L380.192 397.823M380.192 397.823L320.607 295.424L320.173 294.679H319.311H30.683C15.872 294.679 8.697 288.365 5.13202 282.235C3.32101 279.121 2.4091 275.994 1.952 273.636C1.72402 272.46 1.61086 271.484 1.55478 270.81C1.52676 270.472 1.51306 270.211 1.50636 270.038C1.50302 269.952 1.50143 269.888 1.50067 269.848L1.50005 269.806L1.5 269.8L1.5 269.799L1.5 269.798L1.5 23.6045L1.5 23.6045L1.5 23.6034L1.5 23.6017L1.50004 23.6001L1.50061 23.5655C1.50132 23.5316 1.50284 23.4765 1.50608 23.4016C1.51258 23.2517 1.52596 23.0229 1.5535 22.7263C1.60863 22.1326 1.72016 21.2712 1.9454 20.2316C2.39682 18.1482 3.29844 15.3792 5.09303 12.6184C8.62335 7.18722 15.7949 1.5 30.683 1.5V0C30.683 1.5 30.6843 1.5 30.6869 1.5H30.6987H30.7182H30.7456H30.7807H30.8236H30.8741H30.9323H30.9982H31.0716H31.1527H31.2413H31.3374H31.4409H31.552H31.6705H31.7964H31.9296H32.0702H32.2181H32.3733H32.5358H32.7054H32.8823H33.0664H33.2575H33.4558H33.6612H33.8736H34.093H34.3195H34.5529H34.7932H35.0404H35.2945H35.5554H35.8232H36.0977H36.379H36.6671H36.9618H37.2632H37.5712H37.8858H38.207H38.5348H38.8691H39.2099H39.5571H39.9108H40.2709H40.6373H41.0101H41.3893H41.7747H42.1663H42.5642H42.9683H43.3785H43.7949H44.2174H44.646H45.0807H45.5213H45.968H46.4206H46.8791H47.3436H47.8139H48.2901H48.7721H49.2599H49.7534H50.2527H50.7577H51.2683H51.7846H52.3065H52.8339H53.3669H53.9055H54.4495H54.999H55.554H56.1143H56.68H57.2511H57.8275H58.4092H58.9961H59.5883H60.1856H60.7882H61.3959H62.0086H62.6265H63.2494H63.8774H64.5103H65.1483H65.7911H66.4389H67.0915H67.749H68.4113H69.0784H69.7502H70.4268H71.1081H71.794H72.4846H73.1798H73.8796H74.584H75.2928H76.0062H76.724H77.4463H78.173H78.904H79.6394H80.3792H81.1232H81.8715H82.624H83.3807H84.1416H84.9066H85.6757H86.449H87.2262H88.0076H88.7929H89.5821H90.3754H91.1725H91.9735H92.7783H93.587H94.3995H95.2157H96.0356H96.8593H97.6866H98.5176H99.3522H100.19H101.032H101.877H102.726H103.578H104.434H105.293H106.156H107.021H107.891H108.763H109.639H110.518H111.4H112.285H113.173H114.065H114.96H115.857H116.758H117.662H118.569H119.478H120.391H121.306H122.224H123.146H124.07H124.996H125.926H126.858H127.792H128.73H129.67H130.613H131.558H132.506H133.456H134.408H135.364H136.321H137.281H138.243H139.208H140.175H141.144H142.115H143.089H144.065H145.043H146.023H147.005H147.989H148.975H149.964H150.954H151.946H152.94H153.936H154.934H155.933H156.935H157.938H158.943H159.95H160.958H161.968H162.979H163.993H165.007H166.023H167.041H168.06H169.081H170.103H171.127H172.152H173.178H174.205H175.234H176.264H177.295H178.327H179.361H180.395H181.431H182.468H183.506H184.544H185.584H186.625H187.667H188.709H189.752H190.797H191.842H192.887H193.934H194.981H196.029H197.078H198.127H199.176H200.227H201.278H202.329H203.381H204.433H205.486H206.539H207.592H208.646H209.7H210.754H211.809H212.864H213.919H214.974H216.029H217.084H218.14H219.195H220.251H221.306H222.361H223.417H224.472H225.527H226.582H227.636H228.691H229.745H230.799H231.852H232.905H233.958H235.011H236.063H237.114H238.165H239.216H240.266H241.315H242.364H243.412H244.459H245.506H246.552H247.597H248.642H249.685H250.728H251.77H252.811H253.851H254.89H255.929H256.966H258.002H259.037H260.07H261.103H262.135H263.165H264.194H265.222H266.249H267.274H268.298H269.32H270.342H271.361H272.38H273.396H274.412H275.425H276.437H277.448H278.457H279.464H280.469H281.473H282.475H283.475H284.474H285.47H286.465H287.458H288.449H289.437H290.424H291.409H292.392H293.373H294.351H295.328H296.302H297.274H298.244H299.212H300.177H301.14H302.101H303.059H304.015H304.969H305.92H306.868H307.815H308.758H309.699H310.637H311.573H312.506H313.436H314.364H315.289H316.211H317.13H318.046H318.96H319.87H320.778H321.683H322.585H323.483H324.379H325.271H326.161H327.047H327.93H328.81H329.687H330.561H331.431H332.298H333.161H334.022H334.878H335.732H336.582H337.428H338.271H339.11H339.946H340.778H341.607H342.432H343.253H344.07H344.884H345.694H346.5H347.302H348.101H348.895H349.686H350.473H351.255H352.034H352.808H353.579H354.345H355.108H355.866H356.62H357.369H358.115H358.856H359.593H360.325H361.053H361.777H362.496H363.211H363.922H364.627H365.329H366.025H366.718H367.405H368.088H368.766H369.439H370.108H370.772H371.431H372.085H372.735H373.379H374.019H374.653H375.283H375.907H376.527H377.141H377.751H378.355H378.954H379.548H380.137H380.72H381.298H381.871H382.439H383.001H383.557H384.109H384.655H385.195H385.73H386.259H386.783H387.301H387.814H388.32H388.822H389.317H389.807H390.291H390.769H391.241H391.707H392.168H392.622H393.071H393.514H393.95H394.381H394.805H395.224H395.636H396.042H396.442H396.836H397.223H397.605H397.979H398.348H398.71H399.066H399.415H399.758H400.095H400.425H400.748H401.065H401.375H401.679H401.976H402.266H402.549H402.826H403.096H403.359H403.616H403.865H404.108H404.343H404.572H404.794H405.009H405.216H405.417H405.611H405.797C420.956 1.5 428.258 7.19631 431.848 12.628C433.673 15.3882 434.589 18.1556 435.048 20.2367C435.276 21.2753 435.39 22.1358 435.446 22.7286C435.474 23.0247 435.487 23.2532 435.494 23.4027C435.497 23.4774 435.499 23.5323 435.499 23.566L435.5 23.6004L435.5 23.6017V23.6052L380.192 397.823Z" fill="white" stroke="black" stroke-width="3"/>
</svg>
