<svg width="12" height="21" viewBox="0 0 12 21" fill="none" xmlns="http://www.w3.org/2000/svg">
<path fill-rule="evenodd" clip-rule="evenodd" d="M9.6 1.2H2.4C1.73726 1.2 1.2 1.73726 1.2 2.4V18.6C1.2 19.2627 1.73726 19.8 2.4 19.8H9.6C10.2627 19.8 10.8 19.2627 10.8 18.6V2.4C10.8 1.73726 10.2627 1.2 9.6 1.2ZM2.4 0C1.07452 0 0 1.07452 0 2.4V18.6C0 19.9255 1.07452 21 2.4 21H9.6C10.9255 21 12 19.9255 12 18.6V2.4C12 1.07452 10.9255 0 9.6 0H2.4Z" fill="#0088CC"/>
<path d="M1 3H11M1 16.1165H11M4.63636 18H7.36364" stroke="#0088CC"/>
</svg>
