<svg xmlns="http://www.w3.org/2000/svg" xmlns:xlink="http://www.w3.org/1999/xlink" width="0" height="0" style="position:absolute">
	
		<symbol id="Group" viewBox="0 0 18 30">
			<path d="M1 4a3 3 0 0 1 3-3h10a3 3 0 0 1 3 3v22a3 3 0 0 1-3 3H4a3 3 0 0 1-3-3V4z" stroke="#fff" stroke-width="2"></path><path d="M1 5h16M1 23h16m-9.5 2.5h3" stroke="#fff"></path>
		</symbol>
	
		<symbol id="favorite" viewBox="0 0 33 40">
			<path d="M30.933 38.308l-14.758-10.2L2 38.308v-35.9h28.933v35.9z" stroke="#fff" stroke-width="3" stroke-linecap="round" stroke-linejoin="round"></path>
		</symbol>
	
		<symbol id="file" viewBox="0 0 20 20">
			<path fill-rule="evenodd" clip-rule="evenodd" d="M10 18a8 8 0 1 0 0-16 8 8 0 0 0 0 16zm0 2c5.523 0 10-4.477 10-10S15.523 0 10 0 0 4.477 0 10s4.477 10 10 10z" fill="#FF6F00"></path><path fill-rule="evenodd" clip-rule="evenodd" d="M9 15V5h2v10H9z" fill="#FF6F00"></path><path fill-rule="evenodd" clip-rule="evenodd" d="M15 11H5V9h10v2z" fill="#FF6F00"></path>
		</symbol>
	
		<symbol id="footer-phone" viewBox="0 0 18 30">
			<path fill-rule="evenodd" clip-rule="evenodd" d="M14 2H4a2 2 0 0 0-2 2v22a2 2 0 0 0 2 2h10a2 2 0 0 0 2-2V4a2 2 0 0 0-2-2zM4 0a4 4 0 0 0-4 4v22a4 4 0 0 0 4 4h10a4 4 0 0 0 4-4V4a4 4 0 0 0-4-4H4z" fill="#fff"></path><path fill-rule="evenodd" clip-rule="evenodd" d="M17 5.5H1v-1h16v1zm0 18H1v-1h16v1zM10.5 26h-3v-1h3v1z" fill="#fff"></path>
		</symbol>
	
		<symbol id="logotype" viewBox="0 0 160 36">
			<path fill-rule="evenodd" clip-rule="evenodd" d="M124.872 29.824h-4.267v-7.171h4.267c.807 1.738 3.073 3.121 4.38 3.121 1.949 0 2.858-.405 2.858-1.62 0-.95-1.58-1.794-4.742-2.552-.281-.06-.489-.115-.612-.14-2.54-.6-4.215-1.323-5.049-2.18-.82-.853-1.228-2.15-1.228-3.896 0-1.856.653-3.335 1.965-4.43 1.31-1.086 3.099-1.634 5.35-1.634 1.689 0 3.577.368 5.38 1.388V9.607h4.098v6.633h-4.098c-.941-1.969-2.803-3.051-4.539-3.051-1.169 0-2.241.378-2.241 1.764 0 1.04 1.682 1.916 5.037 2.628.429.083.761.15.997.204 1.987.424 3.423 1.098 4.3 2.049.882.943 1.324 2.26 1.324 3.963 0 1.932-.657 3.475-1.97 4.634-1.309 1.164-3.067 1.752-5.267 1.752-1.855 0-4.044-.57-5.944-1.602v1.243h.001zm13.857-10.07c0-3.226.952-5.777 2.865-7.635 1.913-1.863 4.503-2.797 7.788-2.797 3.298 0 5.898.934 7.781 2.797 1.893 1.858 2.837 4.409 2.837 7.635 0 3.223-.953 5.776-2.853 7.656-1.903 1.87-4.502 2.811-7.799 2.811-3.288 0-5.878-.934-7.775-2.806-1.9-1.872-2.844-4.42-2.844-7.661zm5.941-.044c0 2.127.399 3.731 1.182 4.821.793 1.084 1.96 1.623 3.498 1.623 1.543 0 2.718-.547 3.514-1.638.798-1.086 1.199-2.692 1.199-4.805 0-2.13-.39-3.724-1.18-4.8-.782-1.07-1.946-1.602-3.501-1.602-1.54 0-2.721.54-3.513 1.614-.8 1.075-1.199 2.671-1.199 4.787zM115.552 2.913H121L110.9 36h-5.441l10.093-33.087zm-9.196 0h5.444L101.705 36H96.26l10.096-33.087z" fill="#fff"></path><path fill-rule="evenodd" clip-rule="evenodd" d="M95.293 29.84h-6.49v-6.404h6.49v6.404zM71.3 13.51H68.54V9.596h8.576v2.398c1.458-2.73 5.927-3.3 8.735-2.766v4.806c-2.428-.395-5.48-.173-7.182 1.867-1.04 1.241-1.553 2.988-1.553 5.621v4.27h2.912v4.048H71.3V13.51zM47.91 19.732c0-3.3.926-5.903 2.78-7.806 1.856-1.908 4.391-2.864 7.588-2.864 3.281 0 5.802.906 7.578 2.704 1.774 1.8 2.659 4.373 2.659 7.721 0 .196-.002.433-.023.69-.006.262-.034.635-.063 1.119l-14.612.024c0 1.585.396 2.809 1.202 3.663.792.859 1.946 1.284 3.435 1.284 1.086 0 1.994-.223 2.717-.68.718-.456 1.272-1.139 1.658-2.062h5.432c-.494 2.294-1.523 4.014-3.094 5.148-1.57 1.132-3.725 1.697-6.455 1.697-3.42 0-6.076-.927-7.97-2.794-2.126-2.108-2.832-4.938-2.832-7.844zm5.95-2.117h8.881v-.45c0-1.205-.41-2.191-1.232-2.938-.834-.763-1.894-1.142-3.185-1.142-1.32 0-2.39.417-3.226 1.244-.823.83-1.237 1.927-1.237 3.286zm-5.906-4.02H43.68v10.32c0 .653.113 1.127.34 1.424.228.296.594.45 1.084.45l2.853-.006v4.538c-.325.03-3.393.047-3.745.047-2.198 0-3.802-.433-4.825-1.301-1.025-.88-1.529-2.243-1.529-4.1V13.594h-3.274V9.596h3.274V4.902h5.822v4.694h4.277v3.998zm47.338 2.36h-6.49v-6.36h6.49v6.36zM2.778 13.51H0V9.596h8.628V25.79h4.846V13.51h-2.783V9.595h8.45v2.128c2.791-2.868 9.947-3.77 12.703-.78 1.145 1.257 1.72 3.217 1.72 5.875v8.972h2.731v4.05h-8.553V17.538c0-5.79-8.474-3.929-8.474 1.703v6.549h3.135v4.049H2.776l.002-16.33zm5.85-6.849H2.524V.921h6.104v5.74z" fill="#FF8120"></path>
		</symbol>
	
		<symbol id="orange-search" viewBox="0 0 23 24">
			<path d="M22.273 21.887l-5.408-5.408a9.435 9.435 0 0 0 2.426-6.312c0-5.228-4.253-9.48-9.48-9.48S.331 4.94.331 10.167s4.253 9.48 9.48 9.48a9.44 9.44 0 0 0 5.975-2.128l5.428 5.428a.748.748 0 1 0 1.06-1.06zM1.83 10.168c0-4.4 3.58-7.98 7.98-7.98s7.98 3.58 7.98 7.98-3.58 7.98-7.98 7.98-7.98-3.58-7.98-7.98z" fill="#FF8120"></path>
		</symbol>
	
		<symbol id="phone" viewBox="0 0 20 35">
			<path fill-rule="evenodd" clip-rule="evenodd" d="M4 2a2 2 0 0 0-2 2v27a2 2 0 0 0 2 2h12a2 2 0 0 0 2-2V4a2 2 0 0 0-2-2H4zm0-2a4 4 0 0 0-4 4v27a4 4 0 0 0 4 4h12a4 4 0 0 0 4-4V4a4 4 0 0 0-4-4H4z" fill="#FFCB46"></path><path fill-rule="evenodd" clip-rule="evenodd" d="M19 4.5H1v-1h18v1zm0 24H1v-1h18v1zM11.5 31h-3v-1h3v1z" fill="#FFCB46"></path>
		</symbol>
	
		<symbol id="price-ticket-blue" viewBox="0 0 150 65">
			<path fill-rule="evenodd" clip-rule="evenodd" d="M25.853.5h123.48v64H25.841L.729 31.86 25.853.5zm.96 2L3.271 31.886 26.826 62.5h120.507v-60H26.813zM11.126 31.883C11.084 27.54 14.79 25 18 25c1.659 0 3.418.723 4.761 1.902 1.354 1.189 2.364 2.915 2.364 4.971 0 2.067-1.069 3.85-2.424 5.086C21.36 38.184 19.598 39 18 39c-1.58 0-3.277-.739-4.573-1.956-1.313-1.231-2.282-3.013-2.302-5.161zM18 27c-2.332 0-4.904 1.854-4.875 4.864.014 1.528.697 2.81 1.67 3.722C15.784 36.514 17.008 37 18 37c.975 0 2.276-.536 3.353-1.519 1.064-.97 1.772-2.252 1.772-3.608 0-1.366-.667-2.576-1.683-3.468C20.415 27.503 19.112 27 18 27z" fill="#6CCEFF"></path>
		</symbol>
	
		<symbol id="price-ticket-orange" viewBox="0 0 147 64">
			<path fill-rule="evenodd" clip-rule="evenodd" d="M25.853 0h120.98v64H25.841L.729 31.36 25.853 0zm.96 2L3.271 31.386 26.826 62h118.007V2H26.813zM11.126 31.383C11.084 27.04 14.79 24.5 18 24.5c1.659 0 3.419.723 4.761 1.902 1.354 1.189 2.364 2.915 2.364 4.971 0 2.067-1.069 3.85-2.424 5.086C21.36 37.684 19.598 38.5 18 38.5c-1.58 0-3.277-.739-4.573-1.956-1.313-1.231-2.282-3.013-2.302-5.161zM18 26.5c-2.332 0-4.904 1.854-4.875 4.864.014 1.528.697 2.81 1.67 3.722.989.928 2.213 1.414 3.205 1.414.975 0 2.276-.536 3.353-1.519 1.064-.97 1.772-2.252 1.772-3.608 0-1.366-.667-2.576-1.683-3.468-1.027-.902-2.33-1.405-3.442-1.405z" fill="#FFAE6F"></path>
		</symbol>
	
		<symbol id="project" viewBox="0 0 46 34">
			<path d="M44.34 32.479H5.061V9.2l3.67-6.791H20.34L24.353 9.2H44.34v23.279z" stroke="#fff" stroke-width="3" stroke-linecap="round" stroke-linejoin="round"></path><path d="M22.916 6.267h19.23V9.2M6.627 6.267H1v24.017l3.513 2.859" stroke="#fff" stroke-width="1.5" stroke-linecap="round" stroke-linejoin="round"></path>
		</symbol>
	
		<symbol id="rectangle" viewBox="0 0 30 30">
			<path d="M0 0h30v30L0 0z" fill="#fff"></path>
		</symbol>
	
		<symbol id="shop" viewBox="0 0 43 39">
			<path d="M14.42 15.729h25.398M15.484 20.431h22.715" stroke="#fff" stroke-width="1.5" stroke-linecap="round" stroke-linejoin="round"></path><path d="M2 1.804h8.296l6.201 23.938H37.46l3.756-15.249H12.707" stroke="#fff" stroke-width="3" stroke-linecap="round" stroke-linejoin="round"></path><path d="M19.745 10.896v14.82M24.55 10.896v14.82M29.352 10.896v14.82M34.156 10.896v14.82" stroke="#fff" stroke-width="1.5" stroke-linecap="round" stroke-linejoin="round"></path><path d="M12.653 36.911c1.806 0 3.271-1.487 3.271-3.321s-1.465-3.321-3.271-3.321c-1.807 0-3.272 1.487-3.272 3.321s1.465 3.321 3.272 3.321zM34.819 36.911c1.807 0 3.271-1.487 3.271-3.321s-1.464-3.321-3.271-3.321-3.272 1.487-3.272 3.321 1.465 3.321 3.272 3.321zM15.924 31.576h15.073" stroke="#fff" stroke-width="3" stroke-linecap="round" stroke-linejoin="round"></path>
		</symbol>
	
		<symbol id="site" viewBox="0 0 43 34">
			<path d="M41.278 2.31H2v30.071h39.278V2.31z" stroke="#fff" stroke-width="3" stroke-linecap="round" stroke-linejoin="round"></path><path d="M2.13 9.345h38.887M2.13 15.042h38.887M12.439 15.306v17.099M28.359 26.433H17.528m0-7.418h15.267-15.267zm15.267 3.709H17.528h15.267z" stroke="#fff" stroke-width="1.5" stroke-linecap="round" stroke-linejoin="round"></path>
		</symbol>
	
		<symbol id="small-ticket" viewBox="0 0 25 17">
			<path d="M24.128 7.829L19.22.529a.753.753 0 0 0-.623-.332H1.647a.75.75 0 0 0-.75.75v14.516c0 .414.336.75.75.75h16.95c.248 0 .48-.123.62-.328l4.908-7.215a.75.75 0 0 0 .003-.841zm-5.927 6.883H2.397V1.697h15.801L22.6 8.245l-4.399 6.467z" fill="#FF8120"></path><path d="M13.403 8.205a3.23 3.23 0 0 0 3.226 3.226 3.23 3.23 0 0 0 3.226-3.226 3.23 3.23 0 0 0-3.226-3.226 3.23 3.23 0 0 0-3.226 3.226zm4.951 0c0 .952-.774 1.726-1.726 1.726a1.728 1.728 0 0 1-1.726-1.726c0-.952.774-1.726 1.726-1.726s1.726.774 1.726 1.726z" fill="#FF8120"></path>
		</symbol>
	
		<symbol id="style" viewBox="0 0 39 43">
			<path d="M13.987 21.267h12.04m-12.04 3.998h12.04-12.04zm12.04 2.354h-12.04 12.04zm-3.498 2.355h-8.54 8.54zM23.225 7.432h-6.05m8.53-2.354h-8.53 8.53z" stroke="#fff" stroke-width="1.5" stroke-linecap="round" stroke-linejoin="round"></path><path d="M7.634 24.924c1.228 0 2.224-1.01 2.224-2.257s-.996-2.257-2.224-2.257c-1.227 0-2.223 1.01-2.223 2.257 0 1.246.996 2.257 2.223 2.257zM13.022 8.299c1.109 0 2.008-.912 2.008-2.038s-.9-2.038-2.008-2.038c-1.109 0-2.008.912-2.008 2.038s.9 2.038 2.008 2.038z" fill="#fff"></path><path d="M30.107 17.22H2v16.955h28.107V17.22z" stroke="#fff" stroke-width="3" stroke-linecap="round" stroke-linejoin="round"></path><path d="M7.91 16.983V1.787h29.27v39.142H7.91v-6.571" stroke="#fff" stroke-width="3" stroke-linecap="round" stroke-linejoin="round"></path>
		</symbol>
	
		<symbol id="team_pattern" viewBox="0 0 1920 15">
			<path d="M22.5 8L15 15 7.5 8 0 15V0h1320v15l-8.5-7-8 7-7-7-7 7-7-7-7 7-7-7-7 7-7-7-7 7-7-7-7 7-7-7-7 7-7-7-7 7-7-7-7 7-7-7-7 7-7-7-7 7-7-7-7 7-7-7-7 7-7-7-7 7-7-7-7 7-7-7-7 7-7-7-7 7-7-7-7 7-7-7-7 7-7-7-7 7-7-7-7 7-7-7-7 7-7-7-7 7-7-7-7 7-7-7-7 7-7-7-7 7-7-7-7 7-7-7-7 7-7-7-7 7-7-7-7 7-7-7-7 7-7-7-7 7-7-7-7 7-7-7-7 7-7-7-7 7-7-7-7 7-7-7-7 7-7-7-7 7-7-7-7 7-7-7-7 7-7-7-7 7-7-7-7 7-7-7-7 7-7-7-7 7-7-7-7 7-7-7-7 7-7-7-7 7-7-7-7 7-7-7-7 7-7-7-7 7-7-7-7 7-7-7-7 7-7-7-7 7-7-7-7 7-7-7-7 7-7-7-7 7-7-7-7 7-7-7-7 7-7-7-7 7-7-7-7 7-7-7-7 7-7-7-7 7-7-7-7 7-7-7-7 7-7-7-7 7-7-7-7 7-7-7-7 7-7-7-7 7-7-7-7 7-7-7-7 7-7-7-7 7-7-7-7 7-7-7-7 7-7-7-7 7-7-7-7 7-7-7-7 7-7-7-7 7-7-7-7 7-7-7-7 7-7-7-7 7-7-7-7 7-7-7-7 7-7-7-7 7-7-7-7 7-7-7-7 7-7-7-7 7-7-7-7 7-7-7-7 7-7-7-7 7-7-7-7 7-7-7-7 7-7-7-7 7-7-7z"></path>
		</symbol>
	
</svg>
