<svg width="1320" height="15" viewBox="0 0 1320 15" fill="#FFF5DB" xmlns="http://www.w3.org/2000/svg">
<path d="M22.5 8L15 15L8 8L0 15V8V0H1320V8V15L1311 8L1303.5 15L1296.5 8L1289.5 15L1282.5 8L1275.5 15L1268.5 8L1261.5 15L1254.5 8L1247.5 15L1240.5 8L1233.5 15L1226.5 8L1219.5 15L1212.5 8L1205.5 15L1198.5 8L1191.5 15L1184.5 8L1177.5 15L1170.5 8L1163.5 15L1156.5 8L1149.5 15L1142.5 8L1135.5 15L1128.5 8L1121.5 15L1114.5 8L1107.5 15L1100.5 8L1093.5 15L1086.5 8L1079.5 15L1072.5 8L1065.5 15L1058.5 8L1051.5 15L1044.5 8L1037.5 15L1030.5 8L1023.5 15L1016.5 8L1009.5 15L1002.5 8L995.5 15L988.5 8L981.5 15L974.5 8L967.5 15L960.5 8L953.5 15L946.5 8L939.5 15L932.5 8L925.5 15L918.5 8L911.5 15L904.5 8L897.5 15L890.5 8L883.5 15L876.5 8L869.5 15L862.5 8L855.5 15L848.5 8L841.5 15L834.5 8L827.5 15L820.5 8L813.5 15L806.5 8L799.5 15L792.5 8L785.5 15L778.5 8L771.5 15L764.5 8L757.5 15L750.5 8L743.5 15L736.5 8L729.5 15L722.5 8L715.5 15L708.5 8L701.5 15L694.5 8L687.5 15L680.5 8L673.5 15L666.5 8L659.5 15L652.5 8L645.5 15L638.5 8L631.5 15L624.5 8L617.5 15L610.5 8L603.5 15L596.5 8L589.5 15L582.5 8L575.5 15L568.5 8L561.5 15L554.5 8L547.5 15L540.5 8L533.5 15L526.5 8L519.5 15L512.5 8L505.5 15L498.5 8L491.5 15L484.5 8L477.5 15L470.5 8L463.5 15L456.5 8L449.5 15L442.5 8L435.5 15L428.5 8L421.5 15L414.5 8L407.5 15L400.5 8L393.5 15L386.5 8L379.5 15L372.5 8L365.5 15L358.5 8L351.5 15L344.5 8L337.5 15L330.5 8L323.5 15L316.5 8L309.5 15L302.5 8L295.5 15L288.5 8L281.5 15L274.5 8L267.5 15L260.5 8L253.5 15L246.5 8L239.5 15L232.5 8L225.5 15L218.5 8L211.5 15L204.5 8L197.5 15L190.5 8L183.5 15L176.5 8L169.5 15L162.5 8L155.5 15L148.5 8L141.5 15L134.5 8L127.5 15L120.5 8L113.5 15L106.5 8L99.5 15L92.5 8L85.5 15L78.5 8L71.5 15L64.5 8L57.5 15L50.5 8L43.5 15L36.5 8L29.5 15L22.5 8Z" fill=""/>
</svg>
