<svg width="18" height="30" viewBox="0 0 18 30" fill="none" xmlns="http://www.w3.org/2000/svg">
<path fill-rule="evenodd" clip-rule="evenodd" d="M14 2H4C2.89543 2 2 2.89543 2 4V26C2 27.1046 2.89543 28 4 28H14C15.1046 28 16 27.1046 16 26V4C16 2.89543 15.1046 2 14 2ZM4 0C1.79086 0 0 1.79086 0 4V26C0 28.2091 1.79086 30 4 30H14C16.2091 30 18 28.2091 18 26V4C18 1.79086 16.2091 0 14 0H4Z" fill="white"/>
<path fill-rule="evenodd" clip-rule="evenodd" d="M17 5.5H1V4.5H17V5.5ZM17 23.5H1V22.5H17V23.5ZM10.5 26H7.5V25H10.5V26Z" fill="white"/>
</svg>
