<svg width="160" height="36" viewBox="0 0 160 36" fill="none" xmlns="http://www.w3.org/2000/svg">
    <path fill-rule="evenodd" clip-rule="evenodd" d="M124.872 29.8239H120.605V22.6527H124.872C125.679 24.3911 127.945 25.774 129.252 25.774C131.201 25.774 132.11 25.3687 132.11 24.1544C132.11 23.2044 130.53 22.3598 127.368 21.6022C127.087 21.5413 126.879 21.4866 126.756 21.4621C124.216 20.8629 122.541 20.1393 121.707 19.2812C120.887 18.4294 120.479 17.132 120.479 15.3857C120.479 13.5302 121.132 12.0506 122.444 10.9566C123.754 9.86976 125.543 9.32196 127.794 9.32196C129.483 9.32196 131.371 9.69006 133.174 10.7104V9.60694H137.272V16.2398H133.174C132.233 14.2711 130.371 13.189 128.635 13.189C127.466 13.189 126.394 13.5666 126.394 14.9527C126.394 15.9929 128.076 16.8692 131.431 17.5808C131.86 17.664 132.192 17.7305 132.428 17.7851C134.415 18.2086 135.851 18.883 136.728 19.8338C137.61 20.7766 138.052 22.0946 138.052 23.7974C138.052 25.7289 137.395 27.2717 136.082 28.4314C134.773 29.5951 133.015 30.1825 130.815 30.1825C128.96 30.1825 126.771 29.6133 124.871 28.5811V29.8239H124.872ZM138.729 19.7538C138.729 16.528 139.681 13.9774 141.594 12.1187C143.507 10.2561 146.097 9.32196 149.382 9.32196C152.68 9.32196 155.28 10.2561 157.163 12.1187C159.056 13.9774 160 16.528 160 19.7538C160 22.9772 159.047 25.5302 157.147 27.4103C155.244 29.2808 152.645 30.2213 149.348 30.2213C146.06 30.2213 143.47 29.2872 141.573 27.415C139.673 25.5429 138.729 22.9955 138.729 19.7538ZM144.67 19.7103C144.67 21.8373 145.069 23.4411 145.852 24.5312C146.645 25.6149 147.812 26.154 149.35 26.154C150.893 26.154 152.068 25.607 152.864 24.5161C153.662 23.43 154.063 21.8239 154.063 19.7111C154.063 17.5816 153.673 15.9873 152.883 14.9115C152.101 13.8405 150.937 13.3093 149.382 13.3093C147.842 13.3093 146.661 13.8492 145.869 14.9234C145.069 15.9976 144.67 17.5943 144.67 19.7103ZM115.552 2.91309H121L110.9 36H105.459L115.552 2.91309ZM106.356 2.91309H111.8L101.705 36H96.2596L106.356 2.91309Z" fill="white"/>
    <path fill-rule="evenodd" clip-rule="evenodd" d="M95.2928 29.8397H88.8037V23.4355H95.2928V29.8397ZM71.2999 13.5103H68.5412V9.59579H77.1173V11.9936C78.5753 9.26332 83.0439 8.69415 85.8524 9.22769V14.0344C83.4243 13.6393 80.3727 13.861 78.67 15.901C77.6309 17.1422 77.1173 18.8893 77.1173 21.5222V25.7914H80.0293V29.8404H71.2999V13.5103ZM47.9112 19.7316C47.9112 16.4314 48.8372 13.8285 50.6907 11.9255C52.5467 10.0185 55.0823 9.06225 58.2791 9.06225C61.5602 9.06225 64.0814 9.96785 65.8571 11.7656C67.6312 13.5657 68.5155 16.1392 68.5155 19.487C68.5155 19.6833 68.5139 19.92 68.493 20.1765C68.4866 20.4393 68.4585 20.8121 68.4296 21.2958L53.8185 21.3203C53.8185 22.9051 54.2141 24.129 55.0197 24.9831C55.8117 25.842 56.9664 26.2671 58.4549 26.2671C59.5413 26.2671 60.4488 26.0439 61.1718 25.5863C61.89 25.1311 62.4436 24.448 62.8304 23.525H68.2619C67.7676 25.8191 66.7389 27.5392 65.1678 28.6728C63.5975 29.8048 61.443 30.37 58.7132 30.37C55.2926 30.37 52.6366 29.4431 50.7429 27.5756C48.6173 25.4684 47.9112 22.6376 47.9112 19.7316ZM53.8619 17.6148H62.7421V17.1644C62.7421 15.9596 62.3313 14.974 61.5096 14.2275C60.6759 13.4644 59.6159 13.0852 58.3249 13.0852C57.0049 13.0852 55.9345 13.5024 55.0992 14.3288C54.2759 15.1592 53.8619 16.2564 53.8619 17.6148ZM47.9553 13.5942H43.6785V23.9152C43.6785 24.5683 43.7924 25.0417 44.0195 25.3393C44.2466 25.6354 44.6133 25.7882 45.1035 25.7882L47.9561 25.7834V30.3209C47.6311 30.3518 44.5627 30.3684 44.2113 30.3684C42.0126 30.3684 40.4094 29.9354 39.3864 29.067C38.3609 28.1876 37.857 26.8244 37.857 24.9665V13.5942H34.5831V9.59579H37.857V4.90154H43.6793V9.59579H47.9561L47.9553 13.5942ZM95.2928 15.9548H88.8037V9.59579H95.2928V15.9548ZM2.77795 13.5103H0V9.59579H8.62753V25.7906C10.2428 25.7906 11.8588 25.7906 13.4741 25.7906V13.5103H10.6913V9.59579H19.1407V11.7236C21.9323 8.85643 29.0882 7.9532 31.8437 10.9447C32.9887 12.201 33.5641 14.161 33.5641 16.8192V25.7914H36.2955V29.8404H27.7418V17.5388C27.7418 11.749 19.2683 13.6101 19.2683 19.2424V25.7906H22.4033V29.8397C14.8903 29.8397 10.2885 29.8397 2.77634 29.8397C2.77554 24.3957 2.77795 18.955 2.77795 13.5103ZM8.62753 6.66129H2.52439V0.920532H8.62753V6.66129Z" fill="#FF8120"/>
</svg>
