<svg width="23" height="24" viewBox="0 0 23 24" fill="none" xmlns="http://www.w3.org/2000/svg">
<path d="M22.2731 21.887L16.8651 16.479C18.3681 14.8 19.2911 12.592 19.2911 10.167C19.2911 4.939 15.0381 0.686996 9.81105 0.686996C4.58405 0.686996 0.331055 4.94 0.331055 10.167C0.331055 15.394 4.58405 19.647 9.81105 19.647C12.0751 19.647 14.1531 18.847 15.7861 17.519L21.2141 22.947C21.3601 23.093 21.5521 23.167 21.7441 23.167C21.9361 23.167 22.1281 23.094 22.2741 22.947C22.5661 22.655 22.5661 22.18 22.2731 21.887ZM1.83005 10.168C1.83005 5.768 5.41005 2.188 9.81005 2.188C14.2101 2.188 17.7901 5.768 17.7901 10.168C17.7901 14.568 14.2101 18.148 9.81005 18.148C5.41005 18.148 1.83005 14.568 1.83005 10.168Z" fill="#FF8120"/>
</svg>
