<svg width="20" height="35" viewBox="0 0 20 35" fill="none" xmlns="http://www.w3.org/2000/svg">
<path fill-rule="evenodd" clip-rule="evenodd" d="M4 2C2.89543 2 2 2.89543 2 4V31C2 32.1046 2.89543 33 4 33H16C17.1046 33 18 32.1046 18 31V4C18 2.89543 17.1046 2 16 2H4ZM4 0C1.79086 0 0 1.79086 0 4V31C0 33.2091 1.79086 35 4 35H16C18.2091 35 20 33.2091 20 31V4C20 1.79086 18.2091 0 16 0H4Z" fill="#FFCB46"/>
<path fill-rule="evenodd" clip-rule="evenodd" d="M19 4.5H1V3.5H19V4.5ZM19 28.5H1V27.5H19V28.5ZM11.5 31H8.5V30H11.5V31Z" fill="#FFCB46"/>
</svg>
