<svg width="147" height="64" viewBox="0 0 147 64" fill="none" xmlns="http://www.w3.org/2000/svg">
<path fill-rule="evenodd" clip-rule="evenodd" d="M25.8531 0H146.833V64H25.841L0.728668 31.3608L25.8531 0ZM26.8135 2L3.27134 31.3857L26.8257 62H144.833V2H26.8135ZM11.125 31.3827C11.0839 27.0406 14.79 24.5 18 24.5C19.6589 24.5 21.4185 25.2225 22.7614 26.4018C24.1153 27.5907 25.125 29.3169 25.125 31.3732C25.125 33.44 24.0565 35.2221 22.7014 36.4587C21.3592 37.6836 19.598 38.5 18 38.5C16.4194 38.5 14.7233 37.7611 13.4265 36.5444C12.1135 35.3125 11.1454 33.5309 11.125 31.3827ZM18 26.5C15.6684 26.5 13.0964 28.3538 13.125 31.3638C13.1394 32.8916 13.8224 34.1734 14.7949 35.0859C15.7837 36.0135 17.0077 36.5 18 36.5C18.975 36.5 20.2762 35.9643 21.3533 34.9814C22.4174 34.0103 23.125 32.7291 23.125 31.3732C23.125 30.0071 22.4576 28.7966 21.4417 27.9046C20.4149 27.0029 19.112 26.5 18 26.5Z" fill="#FFAE6F"/>
</svg>
