<svg width="150" height="65" viewBox="0 0 150 65" fill="none" xmlns="http://www.w3.org/2000/svg">
<path fill-rule="evenodd" clip-rule="evenodd" d="M25.8531 0.5H149.333V64.5H25.841L0.728638 31.8608L25.8531 0.5ZM26.8135 2.5L3.27131 31.8857L26.8256 62.5H147.333V2.5H26.8135ZM11.125 31.8827C11.0839 27.5406 14.79 25 18 25C19.6589 25 21.4184 25.7225 22.7614 26.9018C24.1153 28.0907 25.125 29.8169 25.125 31.8732C25.125 33.94 24.0565 35.7221 22.7014 36.9587C21.3592 38.1836 19.5979 39 18 39C16.4194 39 14.7233 38.2611 13.4265 37.0444C12.1135 35.8125 11.1454 34.0309 11.125 31.8827ZM18 27C15.6683 27 13.0964 28.8538 13.1249 31.8638C13.1394 33.3916 13.8223 34.6734 14.7949 35.5859C15.7836 36.5135 17.0076 37 18 37C18.9749 37 20.2762 36.4643 21.3532 35.4814C22.4174 34.5103 23.125 33.2291 23.125 31.8732C23.125 30.5071 22.4576 29.2966 21.4417 28.4046C20.4149 27.5029 19.1119 27 18 27Z" fill="#6CCEFF"/>
</svg>
