<svg width="43" height="39" viewBox="0 0 43 39" fill="none" xmlns="http://www.w3.org/2000/svg">
<path d="M14.4209 15.729H39.8181" stroke="white" stroke-width="1.5" stroke-linecap="round" stroke-linejoin="round"/>
<path d="M15.4836 20.431H38.1995" stroke="white" stroke-width="1.5" stroke-linecap="round" stroke-linejoin="round"/>
<path d="M2 1.80399H10.2963L16.4973 25.742H37.4588L41.2148 10.493H12.7068" stroke="white" stroke-width="3" stroke-linecap="round" stroke-linejoin="round"/>
<path d="M19.7451 10.896V25.716" stroke="white" stroke-width="1.5" stroke-linecap="round" stroke-linejoin="round"/>
<path d="M24.5493 10.896V25.716" stroke="white" stroke-width="1.5" stroke-linecap="round" stroke-linejoin="round"/>
<path d="M29.3516 10.896V25.716" stroke="white" stroke-width="1.5" stroke-linecap="round" stroke-linejoin="round"/>
<path d="M34.1558 10.896V25.716" stroke="white" stroke-width="1.5" stroke-linecap="round" stroke-linejoin="round"/>
<path d="M12.6526 36.911C14.4593 36.911 15.924 35.4241 15.924 33.59C15.924 31.7558 14.4593 30.269 12.6526 30.269C10.8458 30.269 9.3811 31.7558 9.3811 33.59C9.3811 35.4241 10.8458 36.911 12.6526 36.911Z" stroke="white" stroke-width="3" stroke-linecap="round" stroke-linejoin="round"/>
<path d="M34.8188 36.911C36.6256 36.911 38.0903 35.4241 38.0903 33.59C38.0903 31.7558 36.6256 30.269 34.8188 30.269C33.012 30.269 31.5474 31.7558 31.5474 33.59C31.5474 35.4241 33.012 36.911 34.8188 36.911Z" stroke="white" stroke-width="3" stroke-linecap="round" stroke-linejoin="round"/>
<path d="M15.9241 31.576H30.9966" stroke="white" stroke-width="3" stroke-linecap="round" stroke-linejoin="round"/>
</svg>
