<svg width="25" height="17" viewBox="0 0 25 17" fill="none" xmlns="http://www.w3.org/2000/svg">
<path d="M24.128 7.829L19.22 0.528998C19.08 0.321998 18.847 0.196999 18.597 0.196999H1.64697C1.23297 0.196999 0.896973 0.532999 0.896973 0.946999V15.463C0.896973 15.877 1.23297 16.213 1.64697 16.213H18.597C18.845 16.213 19.077 16.09 19.217 15.885L24.125 8.67C24.298 8.416 24.299 8.083 24.128 7.829ZM18.201 14.712H2.39697V1.697H18.198L22.6 8.245L18.201 14.712Z" fill="#FF8120"/>
<path d="M13.4031 8.205C13.4031 9.984 14.8501 11.431 16.6291 11.431C18.4081 11.431 19.8551 9.984 19.8551 8.205C19.8551 6.426 18.4081 4.979 16.6291 4.979C14.8501 4.979 13.4031 6.426 13.4031 8.205ZM18.3541 8.205C18.3541 9.157 17.5801 9.931 16.6281 9.931C15.6761 9.931 14.9021 9.157 14.9021 8.205C14.9021 7.253 15.6761 6.479 16.6281 6.479C17.5801 6.479 18.3541 7.253 18.3541 8.205Z" fill="#FF8120"/>
</svg>
