<svg width="39" height="43" viewBox="0 0 39 43" fill="none" xmlns="http://www.w3.org/2000/svg">
<path d="M13.9873 21.267H26.0269M13.9873 25.265H26.0269H13.9873ZM26.0269 27.619H13.9873H26.0269ZM22.5289 29.974H13.9883H22.5289Z" stroke="white" stroke-width="1.5" stroke-linecap="round" stroke-linejoin="round"/>
<path d="M23.2254 7.43198H17.1741M25.7049 5.07797H17.1741H25.7049Z" stroke="white" stroke-width="1.5" stroke-linecap="round" stroke-linejoin="round"/>
<path d="M7.63446 24.924C8.86237 24.924 9.85779 23.9135 9.85779 22.667C9.85779 21.4205 8.86237 20.41 7.63446 20.41C6.40655 20.41 5.41113 21.4205 5.41113 22.667C5.41113 23.9135 6.40655 24.924 7.63446 24.924Z" fill="white"/>
<path d="M13.022 8.29898C14.1307 8.29898 15.0295 7.38654 15.0295 6.26099C15.0295 5.13543 14.1307 4.22299 13.022 4.22299C11.9132 4.22299 11.0144 5.13543 11.0144 6.26099C11.0144 7.38654 11.9132 8.29898 13.022 8.29898Z" fill="white"/>
<path d="M30.1071 17.22H2V34.175H30.1071V17.22Z" stroke="white" stroke-width="3" stroke-linecap="round" stroke-linejoin="round"/>
<path d="M7.9104 16.983V1.78699H37.1808V40.929H7.9104V34.358" stroke="white" stroke-width="3" stroke-linecap="round" stroke-linejoin="round"/>
</svg>
